STARTFONT 2.1
FONT -FontForge-F5.6-Regular-R-Normal--14-100-100-100-P-98-ISO10646-1
SIZE 10 100 100
FONTBOUNDINGBOX 16 16 -4 -3
COMMENT "Generated by fontforge, http://fontforge.sourceforge.net"
COMMENT "Copyright \(C\) 2018 by Sora Sagano."
STARTPROPERTIES 39
FOUNDRY "FontForge"
FAMILY_NAME "F5.6"
WEIGHT_NAME "Regular"
SLANT "R"
SETWIDTH_NAME "Normal"
ADD_STYLE_NAME ""
PIXEL_SIZE 14
POINT_SIZE 100
RESOLUTION_X 100
RESOLUTION_Y 100
SPACING "P"
AVERAGE_WIDTH 98
CHARSET_REGISTRY "ISO10646"
CHARSET_ENCODING "1"
FONTNAME_REGISTRY ""
CHARSET_COLLECTIONS "ISO10646-1"
FONT_NAME "F5.6-Regular"
FACE_NAME "F5.6 Regular"
COPYRIGHT "Copyright \(C\) 2018 by Sora Sagano."
FONT_VERSION "000.110"
FONT_ASCENT 12
FONT_DESCENT 2
UNDERLINE_POSITION -1
UNDERLINE_THICKNESS 1
X_HEIGHT 9
CAP_HEIGHT 11
RAW_ASCENT 870
RAW_DESCENT 130
NORM_SPACE 4
RELATIVE_WEIGHT 40
RELATIVE_SETWIDTH 50
SUPERSCRIPT_X 0
SUPERSCRIPT_Y 4
SUPERSCRIPT_SIZE 8
SUBSCRIPT_X 0
SUBSCRIPT_Y 1
SUBSCRIPT_SIZE 8
AVG_LOWERCASE_WIDTH 95
AVG_UPPERCASE_WIDTH 111
ENDPROPERTIES
CHARS 72
STARTCHAR space
ENCODING 32
SWIDTH 300 0
DWIDTH 4 0
BBX 1 1 0 0
BITMAP
00
ENDCHAR
STARTCHAR hyphen
ENCODING 45
SWIDTH 500 0
DWIDTH 7 0
BBX 5 2 1 4
BITMAP
F8
F8
ENDCHAR
STARTCHAR period
ENCODING 46
SWIDTH 200 0
DWIDTH 3 0
BBX 1 2 1 0
BITMAP
80
80
ENDCHAR
STARTCHAR slash
ENCODING 47
SWIDTH 558 0
DWIDTH 8 0
BBX 6 13 1 0
BITMAP
0C
08
18
18
10
30
30
20
60
60
60
40
C0
ENDCHAR
STARTCHAR zero
ENCODING 48
SWIDTH 840 0
DWIDTH 12 0
BBX 8 13 2 0
BITMAP
FE
FF
C3
C3
C7
CF
DB
F3
E3
C3
C3
FF
FE
ENDCHAR
STARTCHAR one
ENCODING 49
SWIDTH 578 0
DWIDTH 8 0
BBX 5 12 1 0
BITMAP
18
78
F8
18
18
18
18
18
18
18
18
18
ENDCHAR
STARTCHAR two
ENCODING 50
SWIDTH 768 0
DWIDTH 11 0
BBX 7 13 2 0
BITMAP
FE
FE
C6
C6
06
0C
18
70
E0
C0
C0
FE
FE
ENDCHAR
STARTCHAR three
ENCODING 51
SWIDTH 740 0
DWIDTH 10 0
BBX 8 13 1 0
BITMAP
7E
7E
0C
0C
18
3E
3E
03
03
C3
C3
FF
7E
ENDCHAR
STARTCHAR four
ENCODING 52
SWIDTH 763 0
DWIDTH 11 0
BBX 9 12 1 0
BITMAP
1800
1000
3000
3600
6600
6600
C600
FF80
FF80
0600
0600
0600
ENDCHAR
STARTCHAR five
ENCODING 53
SWIDTH 778 0
DWIDTH 11 0
BBX 7 13 2 0
BITMAP
FC
FC
C0
C0
C0
FC
FE
06
06
86
86
FE
FE
ENDCHAR
STARTCHAR six
ENCODING 54
SWIDTH 810 0
DWIDTH 11 0
BBX 7 13 2 0
BITMAP
FE
FE
C6
C0
C0
FE
FE
C2
C2
C2
C2
FE
FE
ENDCHAR
STARTCHAR seven
ENCODING 55
SWIDTH 716 0
DWIDTH 10 0
BBX 8 12 1 1
BITMAP
FF
FF
C2
06
06
0C
0C
08
18
18
30
30
ENDCHAR
STARTCHAR eight
ENCODING 56
SWIDTH 823 0
DWIDTH 12 0
BBX 8 13 2 0
BITMAP
FE
FE
C2
C2
C2
7E
7C
E6
C3
C3
C3
FF
FE
ENDCHAR
STARTCHAR nine
ENCODING 57
SWIDTH 810 0
DWIDTH 11 0
BBX 7 13 2 0
BITMAP
FE
FE
C2
C2
C2
C2
FE
7E
02
02
C2
FE
7E
ENDCHAR
STARTCHAR colon
ENCODING 58
SWIDTH 400 0
DWIDTH 6 0
BBX 2 8 2 2
BITMAP
C0
C0
00
00
00
00
C0
C0
ENDCHAR
STARTCHAR A
ENCODING 65
SWIDTH 847 0
DWIDTH 12 0
BBX 10 12 1 0
BITMAP
1C00
1E00
1E00
1200
3300
3300
3F00
7F00
6180
6180
4180
C0C0
ENDCHAR
STARTCHAR B
ENCODING 66
SWIDTH 830 0
DWIDTH 12 0
BBX 8 13 2 0
BITMAP
FC
FC
CC
CC
CC
FE
FF
C3
C3
C3
C3
FF
FF
ENDCHAR
STARTCHAR C
ENCODING 67
SWIDTH 807 0
DWIDTH 11 0
BBX 8 13 2 0
BITMAP
FE
FF
C3
C2
C0
C0
C0
C0
C0
C2
C3
FF
FE
ENDCHAR
STARTCHAR D
ENCODING 68
SWIDTH 839 0
DWIDTH 12 0
BBX 8 13 2 0
BITMAP
F8
FC
C6
C6
C3
C3
C3
C3
C3
C3
C3
FF
FF
ENDCHAR
STARTCHAR E
ENCODING 69
SWIDTH 738 0
DWIDTH 10 0
BBX 7 13 2 0
BITMAP
FE
FC
C0
C0
C0
FC
FC
C0
C0
C0
C0
FE
FE
ENDCHAR
STARTCHAR F
ENCODING 70
SWIDTH 724 0
DWIDTH 10 0
BBX 7 12 2 1
BITMAP
FE
FE
C0
C0
C0
FC
FE
C0
C0
C0
C0
C0
ENDCHAR
STARTCHAR G
ENCODING 71
SWIDTH 852 0
DWIDTH 12 0
BBX 8 13 2 0
BITMAP
FE
FF
C3
C0
C0
CF
CF
C3
C3
C3
C3
FF
FF
ENDCHAR
STARTCHAR H
ENCODING 72
SWIDTH 900 0
DWIDTH 13 0
BBX 9 12 2 0
BITMAP
C180
C180
C180
C180
C180
FF80
FF80
C180
C180
C180
C180
C180
ENDCHAR
STARTCHAR I
ENCODING 73
SWIDTH 590 0
DWIDTH 8 0
BBX 5 13 2 0
BITMAP
F8
F8
60
60
60
60
60
60
60
60
60
F8
F8
ENDCHAR
STARTCHAR J
ENCODING 74
SWIDTH 720 0
DWIDTH 10 0
BBX 7 12 1 0
BITMAP
06
06
06
06
06
06
06
06
06
C6
FE
FE
ENDCHAR
STARTCHAR K
ENCODING 75
SWIDTH 802 0
DWIDTH 11 0
BBX 8 12 2 0
BITMAP
C3
C6
C6
CC
CC
F8
FC
CC
C6
C6
C3
C3
ENDCHAR
STARTCHAR L
ENCODING 76
SWIDTH 699 0
DWIDTH 10 0
BBX 7 12 2 0
BITMAP
C0
C0
C0
C0
C0
C0
C0
C0
C0
C0
FE
FE
ENDCHAR
STARTCHAR M
ENCODING 77
SWIDTH 1000 0
DWIDTH 14 0
BBX 10 12 2 0
BITMAP
E1C0
F3C0
DEC0
DEC0
CCC0
C0C0
C0C0
C0C0
C0C0
C0C0
C0C0
C0C0
ENDCHAR
STARTCHAR N
ENCODING 78
SWIDTH 880 0
DWIDTH 12 0
BBX 8 12 2 1
BITMAP
C1
E1
F1
D9
CD
C7
C3
C1
C1
C1
C1
C1
ENDCHAR
STARTCHAR O
ENCODING 79
SWIDTH 880 0
DWIDTH 12 0
BBX 8 13 2 0
BITMAP
FF
FF
C1
C1
C1
C1
C1
C1
C1
C1
C1
FF
FF
ENDCHAR
STARTCHAR P
ENCODING 80
SWIDTH 779 0
DWIDTH 11 0
BBX 7 12 2 1
BITMAP
FE
FE
C2
C2
C2
FE
FE
C0
C0
C0
C0
C0
ENDCHAR
STARTCHAR Q
ENCODING 81
SWIDTH 880 0
DWIDTH 12 0
BBX 8 15 2 -2
BITMAP
FF
FF
C1
C1
C1
C1
C1
C1
C1
C9
D9
FF
FF
18
18
ENDCHAR
STARTCHAR R
ENCODING 82
SWIDTH 800 0
DWIDTH 11 0
BBX 8 12 2 1
BITMAP
FE
FE
C6
C6
C6
FE
FE
C8
CC
C4
C6
C3
ENDCHAR
STARTCHAR S
ENCODING 83
SWIDTH 743 0
DWIDTH 10 0
BBX 7 13 2 0
BITMAP
FC
FC
C4
C4
C0
60
38
1C
0C
86
86
FE
FC
ENDCHAR
STARTCHAR T
ENCODING 84
SWIDTH 720 0
DWIDTH 10 0
BBX 8 12 1 1
BITMAP
FF
FF
18
18
18
18
18
18
18
18
18
18
ENDCHAR
STARTCHAR U
ENCODING 85
SWIDTH 870 0
DWIDTH 12 0
BBX 8 12 2 0
BITMAP
C3
C3
C3
C3
C3
C3
C3
C3
C3
C3
FF
FF
ENDCHAR
STARTCHAR V
ENCODING 86
SWIDTH 815 0
DWIDTH 11 0
BBX 9 12 1 1
BITMAP
C080
C180
4180
6100
6300
2300
3300
3200
3600
1600
1C00
1C00
ENDCHAR
STARTCHAR W
ENCODING 87
SWIDTH 1000 0
DWIDTH 14 0
BBX 10 12 2 1
BITMAP
C0C0
C0C0
C0C0
C0C0
C0C0
C0C0
C0C0
CCC0
DEC0
DEC0
F3C0
E1C0
ENDCHAR
STARTCHAR X
ENCODING 88
SWIDTH 779 0
DWIDTH 11 0
BBX 8 12 1 0
BITMAP
63
63
36
36
1C
1C
1C
34
36
62
63
C1
ENDCHAR
STARTCHAR Y
ENCODING 89
SWIDTH 730 0
DWIDTH 10 0
BBX 8 12 1 0
BITMAP
C3
43
66
26
34
3C
18
18
18
18
18
18
ENDCHAR
STARTCHAR Z
ENCODING 90
SWIDTH 711 0
DWIDTH 10 0
BBX 8 13 1 0
BITMAP
FE
7E
06
0C
0C
18
18
30
30
60
60
FF
FF
ENDCHAR
STARTCHAR underscore
ENCODING 95
SWIDTH 640 0
DWIDTH 9 0
BBX 7 2 1 -3
BITMAP
FE
FE
ENDCHAR
STARTCHAR a
ENCODING 97
SWIDTH 724 0
DWIDTH 10 0
BBX 6 10 2 0
BITMAP
FC
FC
04
04
FC
FC
84
84
FC
FC
ENDCHAR
STARTCHAR b
ENCODING 98
SWIDTH 761 0
DWIDTH 11 0
BBX 7 13 2 0
BITMAP
C0
C0
C0
FE
FE
C6
C6
C6
C6
C6
C6
FE
FE
ENDCHAR
STARTCHAR c
ENCODING 99
SWIDTH 639 0
DWIDTH 9 0
BBX 6 10 2 0
BITMAP
FC
FC
80
80
80
80
80
80
FC
FC
ENDCHAR
STARTCHAR d
ENCODING 100
SWIDTH 761 0
DWIDTH 11 0
BBX 7 13 2 0
BITMAP
06
06
06
FE
FE
86
86
86
86
86
86
FE
FE
ENDCHAR
STARTCHAR e
ENCODING 101
SWIDTH 717 0
DWIDTH 10 0
BBX 6 10 2 0
BITMAP
FC
FC
84
84
FC
FC
80
80
FC
FC
ENDCHAR
STARTCHAR f
ENCODING 102
SWIDTH 515 0
DWIDTH 7 0
BBX 5 13 1 0
BITMAP
38
78
60
F8
F8
60
60
60
60
60
60
60
20
ENDCHAR
STARTCHAR g
ENCODING 103
SWIDTH 764 0
DWIDTH 11 0
BBX 8 12 1 -2
BITMAP
3F
23
22
22
FE
C0
C0
FF
21
21
21
3F
ENDCHAR
STARTCHAR h
ENCODING 104
SWIDTH 780 0
DWIDTH 11 0
BBX 7 13 2 0
BITMAP
C0
C0
C0
FE
FE
C6
C6
C6
C6
C6
C6
C6
82
ENDCHAR
STARTCHAR i
ENCODING 105
SWIDTH 396 0
DWIDTH 6 0
BBX 2 12 2 1
BITMAP
C0
C0
00
C0
C0
C0
C0
C0
C0
C0
C0
C0
ENDCHAR
STARTCHAR j
ENCODING 106
SWIDTH 419 0
DWIDTH 6 0
BBX 4 15 0 -2
BITMAP
30
30
00
30
30
30
30
30
30
30
30
30
30
F0
E0
ENDCHAR
STARTCHAR k
ENCODING 107
SWIDTH 724 0
DWIDTH 10 0
BBX 7 12 2 0
BITMAP
C0
C0
C0
C4
CC
C8
F8
F8
D8
CC
C4
C6
ENDCHAR
STARTCHAR l
ENCODING 108
SWIDTH 460 0
DWIDTH 6 0
BBX 3 12 2 0
BITMAP
C0
C0
C0
C0
C0
C0
C0
C0
C0
C0
E0
E0
ENDCHAR
STARTCHAR m
ENCODING 109
SWIDTH 990 0
DWIDTH 14 0
BBX 10 10 2 0
BITMAP
FFC0
FFC0
CCC0
CCC0
CCC0
CCC0
CCC0
CCC0
CCC0
8C40
ENDCHAR
STARTCHAR n
ENCODING 110
SWIDTH 780 0
DWIDTH 11 0
BBX 7 10 2 0
BITMAP
FE
FE
C6
C6
C6
C6
C6
C6
C6
82
ENDCHAR
STARTCHAR o
ENCODING 111
SWIDTH 745 0
DWIDTH 10 0
BBX 7 10 2 0
BITMAP
FC
FE
86
86
86
86
86
86
FE
FC
ENDCHAR
STARTCHAR p
ENCODING 112
SWIDTH 761 0
DWIDTH 11 0
BBX 7 12 2 -2
BITMAP
FE
FE
C6
C6
C6
C6
C6
C6
FE
FE
C0
C0
ENDCHAR
STARTCHAR q
ENCODING 113
SWIDTH 761 0
DWIDTH 11 0
BBX 7 12 2 -2
BITMAP
FE
FE
86
86
86
86
86
86
FE
FE
06
06
ENDCHAR
STARTCHAR r
ENCODING 114
SWIDTH 527 0
DWIDTH 7 0
BBX 4 10 2 0
BITMAP
F0
F0
C0
C0
C0
C0
C0
C0
C0
80
ENDCHAR
STARTCHAR s
ENCODING 115
SWIDTH 688 0
DWIDTH 10 0
BBX 6 10 2 0
BITMAP
FC
FC
80
80
FC
7C
0C
0C
FC
FC
ENDCHAR
STARTCHAR t
ENCODING 116
SWIDTH 608 0
DWIDTH 9 0
BBX 6 13 1 0
BITMAP
20
20
20
FC
FC
20
20
20
20
20
20
3C
3C
ENDCHAR
STARTCHAR u
ENCODING 117
SWIDTH 786 0
DWIDTH 11 0
BBX 7 10 2 0
BITMAP
82
C6
C6
C6
C6
C6
C6
C6
FE
FE
ENDCHAR
STARTCHAR v
ENCODING 118
SWIDTH 721 0
DWIDTH 10 0
BBX 8 10 1 0
BITMAP
C3
C3
42
66
66
24
3C
3C
3C
18
ENDCHAR
STARTCHAR w
ENCODING 119
SWIDTH 880 0
DWIDTH 12 0
BBX 8 10 2 0
BITMAP
C1
C1
C1
C1
C1
C9
DD
F7
E3
C1
ENDCHAR
STARTCHAR x
ENCODING 120
SWIDTH 670 0
DWIDTH 9 0
BBX 7 10 1 0
BITMAP
C2
46
6C
2C
38
38
3C
6C
46
C2
ENDCHAR
STARTCHAR y
ENCODING 121
SWIDTH 721 0
DWIDTH 10 0
BBX 8 11 1 -1
BITMAP
C3
C3
42
66
66
24
3C
1C
08
18
10
ENDCHAR
STARTCHAR z
ENCODING 122
SWIDTH 673 0
DWIDTH 9 0
BBX 6 10 2 0
BITMAP
FC
FC
18
10
30
60
60
C0
FC
FC
ENDCHAR
STARTCHAR uni0237
ENCODING 567
SWIDTH 419 0
DWIDTH 6 0
BBX 4 11 0 -2
BITMAP
30
30
30
30
30
30
30
30
30
F0
E0
ENDCHAR
STARTCHAR .notdef
ENCODING -1
SWIDTH 500 0
DWIDTH 7 0
BBX 5 15 1 -2
BITMAP
F8
D8
88
F8
F8
D8
A8
C8
F8
F8
88
A8
F8
F8
F8
ENDCHAR
STARTCHAR dotlessi
ENCODING -1
SWIDTH 396 0
DWIDTH 6 0
BBX 2 10 2 0
BITMAP
80
C0
C0
C0
C0
C0
C0
C0
C0
C0
ENDCHAR
STARTCHAR uni0307
ENCODING -1
SWIDTH 0 0
DWIDTH 0 0
BBX 2 2 -4 11
BITMAP
C0
C0
ENDCHAR
ENDFONT
